<?xml version="1.0" encoding="UTF-8"?>
<svg id="Layer_2" data-name="Layer 2" xmlns="http://www.w3.org/2000/svg" viewBox="0 0 624.63 150.27">
  <defs>
    <style>
      .cls-1 {
        fill: #fff;
      }

      .cls-2 {
        fill: #fbc314;
      }

      .cls-3 {
        fill: #fbc314;
      }
    </style>
  </defs>
  <g id="Layer_9" data-name="Layer 9">
    <g>
      <g>
        <path class="cls-3" d="m192.68,99.91c-2.54,0-4.92-.48-7.14-1.44-2.23-.96-4.16-2.24-5.81-3.85-1.64-1.61-2.95-3.49-3.9-5.65-.96-2.16-1.44-4.43-1.44-6.83v-25.28c-.07-.89.08-1.75.46-2.57.38-.82.87-1.54,1.49-2.16.62-.62,1.34-1.09,2.16-1.44.82-.34,1.71-.51,2.67-.51,1.78,0,3.3.6,4.57,1.8,1.27,1.2,1.97,2.62,2.11,4.26v25.48c.07,1.37.57,2.5,1.49,3.39.92.89,2.04,1.34,3.34,1.34,1.16,0,2.23-.43,3.19-1.29.96-.86,1.47-1.97,1.54-3.34v-25.69c0-1.71.68-3.17,2.06-4.37,1.37-1.2,2.91-1.8,4.62-1.8,1.85,0,3.44.65,4.78,1.95,1.34,1.3,2,2.88,2,4.73v25.17c0,1.51.5,2.66,1.49,3.44.99.79,2.07,1.18,3.24,1.18,1.37,0,2.52-.45,3.44-1.34s1.39-1.99,1.39-3.29v-24.97c0-1.78.67-3.34,2-4.67,1.34-1.34,2.89-2,4.68-2s3.36.62,4.73,1.85c1.37,1.23,2.06,2.67,2.06,4.31v25.79c0,2.47-.5,4.79-1.49,6.99-.99,2.19-2.33,4.08-4.01,5.65-1.68,1.58-3.63,2.83-5.86,3.75-2.23.93-4.54,1.39-6.94,1.39-4.38,0-8.22-1.34-11.51-4.01-1.64,1.37-3.44,2.38-5.39,3.03-1.95.65-3.96.98-6.01.98Z"/>
        <path class="cls-3" d="m266.55,50.28c3.08.34,5.98,1.23,8.68,2.67,2.71,1.44,5.04,3.27,6.99,5.5,1.95,2.23,3.49,4.76,4.62,7.6,1.13,2.84,1.7,5.84,1.7,8.99v18.19c0,1.85-.69,3.43-2.06,4.73-1.37,1.3-2.91,1.95-4.62,1.95-2.4,0-4.32-1.09-5.75-3.29-.34.14-.65.29-.92.46-.27.17-.55.32-.82.46-1.64.76-3.32,1.34-5.03,1.75-1.78.41-3.67.62-5.65.62-5.14,0-9.73-1.39-13.77-4.16-4.04-2.78-7.06-6.35-9.04-10.74-.69-1.57-1.22-3.19-1.59-4.83-.38-1.64-.57-3.36-.57-5.14s.19-3.49.57-5.14c.38-1.64.91-3.25,1.59-4.83,1.99-4.45,5-8.05,9.04-10.79,4.04-2.74,8.63-4.11,13.77-4.11h1.49c.44,0,.91.04,1.39.1Zm-2.98,36.27c1.58,0,3.07-.29,4.47-.87,1.4-.58,2.62-1.39,3.65-2.41,1.03-1.03,1.85-2.24,2.47-3.65.62-1.4.92-2.93.92-4.57,0-1.51-.31-2.96-.92-4.37-.62-1.4-1.46-2.64-2.52-3.7-1.06-1.06-2.3-1.9-3.7-2.52-1.4-.62-2.86-.92-4.37-.92s-2.95.31-4.32.92c-1.37.62-2.59,1.46-3.65,2.52-1.06,1.06-1.9,2.3-2.52,3.7-.62,1.4-.92,2.86-.92,4.37s.32,3.07.98,4.47c.65,1.4,1.51,2.62,2.57,3.65,1.06,1.03,2.28,1.85,3.65,2.47,1.37.62,2.77.92,4.21.92Z"/>
        <path class="cls-3" d="m300.56,34.26c1.92,0,3.53.67,4.83,2,1.3,1.34,2.02,3,2.16,4.98v8.22h17.67c1.99,0,3.6.69,4.83,2.05,1.23,1.37,1.85,2.98,1.85,4.83s-.69,3.38-2.06,4.78c-1.37,1.4-2.91,2.11-4.62,2.11h-17.67v11.3c0,1.58.29,3.07.87,4.47.58,1.41,1.39,2.66,2.41,3.75s2.24,1.95,3.65,2.57c1.4.62,2.93.92,4.57.92,1.78,0,3.3-.24,4.57-.72,1.27-.48,2.38-1.2,3.34-2.16,1.44-1.23,3.03-1.87,4.78-1.9,1.75-.03,3.37.63,4.88,2,.68.62,1.2,1.32,1.54,2.11.34.79.53,1.61.56,2.47.03.86-.09,1.7-.36,2.52-.27.82-.72,1.54-1.34,2.16-2.4,2.33-5.03,4.11-7.91,5.34-2.88,1.23-5.96,1.85-9.25,1.85-3.56,0-6.92-.6-10.07-1.8-3.15-1.2-5.93-2.91-8.32-5.14-2.4-2.22-4.3-4.9-5.7-8.01-1.4-3.12-2.14-6.59-2.21-10.43v-33.8c0-1.85.7-3.39,2.11-4.62,1.4-1.23,3.03-1.85,4.88-1.85Z"/>
        <path class="cls-3" d="m365.81,50.18c6.85,0,12.67,2.4,17.47,7.19,1.16,1.3,1.7,2.84,1.59,4.62s-.77,3.25-2,4.42c-1.23,1.17-2.81,1.78-4.73,1.85-1.92.07-3.49-.55-4.73-1.85-2.12-1.92-4.66-2.88-7.6-2.88-1.58,0-3.07.33-4.47.98-1.4.65-2.64,1.51-3.7,2.57-1.06,1.06-1.9,2.28-2.52,3.65-.62,1.37-.92,2.81-.92,4.31s.31,3.07.92,4.47c.62,1.4,1.47,2.64,2.57,3.7,1.09,1.06,2.33,1.9,3.7,2.52,1.37.62,2.84.89,4.42.82,3.01,0,5.55-.92,7.6-2.77,1.23-1.37,2.81-2.05,4.73-2.05s3.49.69,4.73,2.05c.62.55,1.09,1.2,1.44,1.95.34.76.53,1.54.56,2.36.03.82-.09,1.63-.36,2.42-.27.79-.69,1.49-1.23,2.11-2.4,2.4-5.03,4.21-7.91,5.45-2.88,1.23-6.06,1.85-9.56,1.85s-6.65-.67-9.66-2c-3.02-1.34-5.65-3.13-7.91-5.39-2.26-2.26-4.06-4.9-5.39-7.91s-2-6.2-2-9.56.67-6.44,2-9.45c1.34-3.01,3.15-5.65,5.45-7.91,2.29-2.26,4.95-4.07,7.96-5.45,3.01-1.37,6.2-2.05,9.56-2.05Z"/>
        <path class="cls-3" d="m396.84,34.67c1.78,0,3.3.62,4.57,1.85,1.27,1.23,1.97,2.84,2.11,4.83v11.82c1.58-1.03,3.42-1.75,5.55-2.16,2.12-.41,4.14-.62,6.06-.62,3.35,0,6.54.62,9.56,1.85,3.01,1.23,5.65,2.95,7.91,5.14,2.26,2.19,4.06,4.76,5.39,7.71,1.34,2.95,2,6.1,2,9.45v18.8c0,1.85-.63,3.43-1.9,4.73-1.27,1.3-2.86,1.99-4.78,2.05-1.78,0-3.29-.6-4.52-1.8-1.23-1.2-1.99-2.72-2.26-4.57v-18.5c0-1.51-.29-2.96-.87-4.37-.58-1.4-1.39-2.63-2.41-3.7s-2.23-1.9-3.6-2.52c-1.37-.62-2.88-.93-4.52-.93-3.08,0-5.7,1.06-7.86,3.19-2.16,2.12-3.41,4.73-3.75,7.81v18.6c0,1.85-.63,3.43-1.9,4.73-1.27,1.3-2.86,1.99-4.78,2.05-1.71,0-3.17-.6-4.37-1.8-1.2-1.2-1.97-2.72-2.31-4.57v-52.81c.14-1.71.8-3.19,2-4.42,1.2-1.23,2.76-1.85,4.68-1.85Z"/>
        <path class="cls-1" d="m450.58,34.26c1.92,0,3.53.67,4.83,2,1.3,1.34,2.02,3,2.16,4.98v8.22h17.67c1.99,0,3.6.69,4.83,2.05,1.23,1.37,1.85,2.98,1.85,4.83s-.69,3.38-2.06,4.78c-1.37,1.4-2.91,2.11-4.62,2.11h-17.67v11.3c0,1.58.29,3.07.87,4.47.58,1.41,1.39,2.66,2.41,3.75,1.03,1.1,2.24,1.95,3.65,2.57,1.4.62,2.93.92,4.57.92,1.78,0,3.3-.24,4.57-.72,1.27-.48,2.38-1.2,3.34-2.16,1.44-1.23,3.03-1.87,4.78-1.9,1.75-.03,3.37.63,4.88,2,.68.62,1.2,1.32,1.54,2.11.34.79.53,1.61.56,2.47.03.86-.09,1.7-.36,2.52-.27.82-.72,1.54-1.34,2.16-2.4,2.33-5.03,4.11-7.91,5.34-2.88,1.23-5.96,1.85-9.25,1.85-3.56,0-6.92-.6-10.07-1.8-3.15-1.2-5.93-2.91-8.32-5.14-2.4-2.22-4.3-4.9-5.7-8.01-1.4-3.12-2.14-6.59-2.21-10.43v-33.8c0-1.85.7-3.39,2.11-4.62,1.4-1.23,3.03-1.85,4.88-1.85Z"/>
        <path class="cls-1" d="m498.77,34.67c1.78,0,3.3.62,4.57,1.85,1.27,1.23,1.97,2.84,2.11,4.83v11.82c1.58-1.03,3.42-1.75,5.55-2.16,2.12-.41,4.14-.62,6.06-.62,3.35,0,6.54.62,9.56,1.85,3.01,1.23,5.65,2.95,7.91,5.14,2.26,2.19,4.06,4.76,5.39,7.71,1.34,2.95,2,6.1,2,9.45v18.8c0,1.85-.63,3.43-1.9,4.73-1.27,1.3-2.86,1.99-4.78,2.05-1.78,0-3.29-.6-4.52-1.8-1.23-1.2-1.99-2.72-2.26-4.57v-18.5c0-1.51-.29-2.96-.87-4.37-.58-1.4-1.39-2.63-2.41-3.7-1.03-1.06-2.23-1.9-3.6-2.52-1.37-.62-2.88-.93-4.52-.93-3.08,0-5.7,1.06-7.86,3.19-2.16,2.12-3.41,4.73-3.75,7.81v18.6c0,1.85-.63,3.43-1.9,4.73-1.27,1.3-2.86,1.99-4.78,2.05-1.71,0-3.17-.6-4.37-1.8-1.2-1.2-1.97-2.72-2.31-4.57v-52.81c.14-1.71.8-3.19,2-4.42,1.2-1.23,2.76-1.85,4.67-1.85Z"/>
        <path class="cls-1" d="m552.61,34.77c1.78,0,3.3.67,4.57,2,1.27,1.33,1.9,2.89,1.9,4.67s-.63,3.34-1.9,4.68c-1.27,1.34-2.79,2-4.57,2-1.99-.07-3.61-.7-4.88-1.9-1.27-1.2-1.9-2.89-1.9-5.09.07-1.78.77-3.29,2.11-4.52,1.34-1.23,2.89-1.85,4.67-1.85Zm0,15.72c1.78,0,3.27.65,4.47,1.95,1.2,1.3,1.87,2.88,2,4.73v36.38c0,1.85-.58,3.39-1.75,4.62-1.17,1.23-2.74,1.92-4.73,2.05-1.78,0-3.29-.55-4.52-1.64-1.23-1.09-1.99-2.63-2.26-4.62v-37.2c.14-1.78.86-3.25,2.16-4.42,1.3-1.16,2.84-1.78,4.62-1.85Z"/>
        <path class="cls-1" d="m598.12,49.98c1.85,0,3.39.7,4.62,2.11,1.23,1.4,1.85,2.89,1.85,4.47,0,1.78-.67,3.34-2,4.67s-2.83,2-4.47,2h-17.67c-.82,0-1.53.24-2.11.72-.58.48-.87,1.17-.87,2.06,0,.96.29,1.7.87,2.21.58.51,1.28.77,2.11.77h11.61c2.12,0,4.09.45,5.91,1.34,1.81.89,3.39,2.07,4.73,3.54,1.34,1.47,2.38,3.03,3.13,4.68.75,1.64,1.13,3.49,1.13,5.55.07,2.26-.33,4.38-1.18,6.37-.86,1.99-2,3.67-3.44,5.04-1.44,1.37-3.12,2.45-5.04,3.24-1.92.79-4.08,1.18-6.47,1.18h-18.91c-1.78,0-3.32-.62-4.62-1.85-1.3-1.23-1.95-2.77-1.95-4.62,0-1.71.62-3.27,1.85-4.68,1.23-1.4,2.74-2.14,4.52-2.21h18.91c1.85,0,2.77-.82,2.77-2.46,0-1.85-.92-2.78-2.77-2.78h-11.3c-2.06,0-3.99-.43-5.81-1.28-1.82-.86-3.39-2.04-4.73-3.54-1.34-1.51-2.38-3.15-3.13-4.93-.75-1.78-1.13-3.7-1.13-5.75s.39-4.04,1.18-5.96c.79-1.92,1.87-3.6,3.24-5.04,1.37-1.44,2.98-2.58,4.83-3.44,1.85-.86,3.87-1.32,6.06-1.39h18.29Z"/>
        <path class="cls-1" d="m617.85,34.26c1.78,0,3.36.67,4.73,2,1.37,1.34,2.06,3,2.06,4.98v34.63c0,1.99-.69,3.65-2.06,4.98-1.37,1.34-2.95,2-4.73,2-1.99,0-3.67-.67-5.03-2-1.37-1.33-2.05-2.99-2.05-4.98v-34.63c0-1.99.68-3.65,2.05-4.98,1.37-1.33,3.05-2,5.03-2Zm6.78,58.77c0,1.85-.69,3.46-2.06,4.83-1.37,1.37-2.95,2.05-4.73,2.05-1.99,0-3.67-.68-5.03-2.05-1.37-1.37-2.05-2.98-2.05-4.83s.68-3.56,2.05-4.93,3.05-2.05,5.03-2.05c1.78,0,3.36.69,4.73,2.05,1.37,1.37,2.06,3.02,2.06,4.93Z"/>
      </g>
      <path class="cls-2" d="m0,84.78c34.25-49.59,33.04,23.21,40.49,7.43,9.7-20.53,14.7-45.06,24.61-50.34,11.77-6.28,25.91,53.54,31.33,40.51,3.01-9.15,3.61-24.36,5.61-33.29C105.82,15.83,137.77-6.61,167.86,1.76c-56.28,5.52-45.31,61.02-46.01,105.31.52,35.21-6.22,46.8-17.52,42.27-15.69-6.28-32.95-64.33-40.79-59.62-4.31,2.58-12.04,32.36-22.54,30.47-8.06-1.45-9.63-9.29-12.11-16.21-5.56-18.4-8.31-39.66-28.56-18.84-.11-.12-.22-.24-.33-.36Z"/>
    </g>
  </g>
</svg>